<svg
  xmlns="http://www.w3.org/2000/svg"
  viewBox="0 0 24 24"
  width="24"
  height="24"
  fill="currentColor"
>
  <path d="M21,12.5c0,0.93-0.28,1.8-0.75,2.52c-0.44,0.67-1.07,1.19-1.81,1.53C18,16.85,17.5,17,17,17c-0.88,0-1.67-0.34-2.28-0.89 C13.91,15.28,13.5,14.18,13.5,13c0-1.37,0.62-2.59,1.58-3.41C15.79,8.95,16.7,8.5,17.73,8.5c1.15,0,2.17,0.5,2.89,1.29 C20.87,10.24,21,11.34,21,12.5z M4.32,15.11c0,0-0.01,0-0.01,0.01C4.12,15.24,4,15.5,4,15.77c0,0.82,1.54,1.66,2.47,1.91 c0.19,0.05,0.39,0.08,0.61,0.08c1.17,0,2.25-0.87,3.13-1.87C12.04,13.77,12,13.38,12,13c0-1.12,0.17-2.18,0.47-3.17 C12.8,8.95,13.13,8.5,13.13,8c0-0.62-0.20-1.6-0.74-2.31C11.57,4.52,10.5,4.01,9,4C8.29,4,7.63,4.1,7.03,4.29 C4.93,5,3.54,6.95,4.02,9.06C4.12,9.5,4.28,9.91,4.49,10.27c0.65,1.13,1.39,1.73,2.13,2.37c0.67,0.58,1.02,1.17,0.22,1.81 C5.94,15.06,4.9,15.11,4.32,15.11z"/>
</svg>
